HIERARCHY
ROOT hip
{
  OFFSET 0 0 0
  CHANNELS 6 Xposition Yposition Zposition Zrotation Yrotation Xrotation
  JOINT abdomen
  {
    OFFSET 0 20.6881 -0.73152
    CHANNELS 3 Zrotation Xrotation Yrotation
    JOINT chest
    {
      OFFSET 0 11.7043 -0.48768
      CHANNELS 3 Zrotation Xrotation Yrotation
      JOINT neck
      {
        OFFSET 0 22.1894 -2.19456
        CHANNELS 3 Zrotation Xrotation Yrotation
        JOINT head
        {
          OFFSET -0.24384 7.07133 1.2192
          CHANNELS 3 Zrotation Xrotation Yrotation
          JOINT leftEye
          {
            OFFSET 4.14528 8.04674 8.04672
            CHANNELS 3 Zrotation Xrotation Yrotation
            End Site
            {
              OFFSET 1 0 0
            }
          }
          JOINT rightEye
          {
            OFFSET -3.6576 8.04674 8.04672
            CHANNELS 3 Zrotation Xrotation Yrotation
            End Site
            {
              OFFSET 1 0 0
            }
          }
        }
      }
      JOINT rCollar
      {
        OFFSET -2.68224 19.2634 -4.8768
        CHANNELS 3 Zrotation Xrotation Yrotation
        JOINT rShldr
        {
          OFFSET -8.77824 -1.95073 1.46304
          CHANNELS 3 Zrotation Xrotation Yrotation
          JOINT rForeArm
          {
            OFFSET -28.1742 -1.7115 0.48768
            CHANNELS 3 Zrotation Xrotation Yrotation
            JOINT rHand
            {
              OFFSET -22.5879 0.773209 7.07136
              CHANNELS 3 Zrotation Xrotation Yrotation
              JOINT rThumb1
              {
                OFFSET -1.2192 -0.487915 3.41376
                CHANNELS 3 Zrotation Xrotation Yrotation
                JOINT rThumb2
                {
                  OFFSET -3.37035 -0.52449 3.41376
                  CHANNELS 3 Zrotation Xrotation Yrotation
                  End Site
                  {
                    OFFSET -1.78271 -1.18214 1.43049
                  }
                }
              }
              JOINT rIndex1
              {
                OFFSET -7.75947 0.938293 5.60832
                CHANNELS 3 Zrotation Xrotation Yrotation
                JOINT rIndex2
                {
                  OFFSET -2.54057 -0.884171 1.56538
                  CHANNELS 3 Zrotation Xrotation Yrotation
                  End Site
                  {
                    OFFSET -1.62519 -0.234802 1.16502
                  }
                }
              }
              JOINT rMid1
              {
                OFFSET -8.24714 1.18213 3.41376
                CHANNELS 3 Zrotation Xrotation Yrotation
                JOINT rMid2
                {
                  OFFSET -3.10165 -0.590103 1.0647
                  CHANNELS 3 Zrotation Xrotation Yrotation
                  End Site
                  {
                    OFFSET -2.48547 -0.328903 0.83742
                  }
                }
              }
              JOINT rRing1
              {
                OFFSET -8.82822 0.546677 1.51678
                CHANNELS 3 Zrotation Xrotation Yrotation
                JOINT rRing2
                {
                  OFFSET -2.60934 -0.819778 -0.0198488
                  CHANNELS 3 Zrotation Xrotation Yrotation
                  End Site
                  {
                    OFFSET -2.33842 -0.294052 0.168128
                  }
                }
              }
              JOINT rPinky1
              {
                OFFSET -8.27202 -0.0477905 -0.4584
                CHANNELS 3 Zrotation Xrotation Yrotation
                JOINT rPinky2
                {
                  OFFSET -1.82734 -0.647385 -0.700984
                  CHANNELS 3 Zrotation Xrotation Yrotation
                  End Site
                  {
                    OFFSET -1.69225 -0.51767 -0.607171
                  }
                }
              }
            }
          }
        }
      }
      JOINT lCollar
      {
        OFFSET 2.68224 19.2634 -4.8768
        CHANNELS 3 Zrotation Xrotation Yrotation
        JOINT lShldr
        {
          OFFSET 8.77824 -1.95073 1.46304
          CHANNELS 3 Zrotation Xrotation Yrotation
          JOINT lForeArm
          {
            OFFSET 28.1742 -1.7115 0.48768
            CHANNELS 3 Zrotation Xrotation Yrotation
            JOINT lHand
            {
              OFFSET 22.5879 0.773209 7.07136
              CHANNELS 3 Zrotation Xrotation Yrotation
              JOINT lThumb1
              {
                OFFSET 1.2192 -0.487915 3.41376
                CHANNELS 3 Zrotation Xrotation Yrotation
                JOINT lThumb2
                {
                  OFFSET 3.37035 -0.52449 3.41376
                  CHANNELS 3 Zrotation Xrotation Yrotation
                  End Site
                  {
                    OFFSET 1.78271 -1.18214 1.43049
                  }
                }
              }
              JOINT lIndex1
              {
                OFFSET 7.75947 0.938293 5.60832
                CHANNELS 3 Zrotation Xrotation Yrotation
                JOINT lIndex2
                {
                  OFFSET 2.54057 -0.884171 1.56538
                  CHANNELS 3 Zrotation Xrotation Yrotation
                  End Site
                  {
                    OFFSET 1.62519 -0.234802 1.16502
                  }
                }
              }
              JOINT lMid1
              {
                OFFSET 8.24714 1.18213 3.41376
                CHANNELS 3 Zrotation Xrotation Yrotation
                JOINT lMid2
                {
                  OFFSET 3.10165 -0.590103 1.0647
                  CHANNELS 3 Zrotation Xrotation Yrotation
                  End Site
                  {
                    OFFSET 2.48547 -0.328903 0.83742
                  }
                }
              }
              JOINT lRing1
              {
                OFFSET 8.82822 0.546677 1.51678
                CHANNELS 3 Zrotation Xrotation Yrotation
                JOINT lRing2
                {
                  OFFSET 2.60934 -0.819778 -0.0198488
                  CHANNELS 3 Zrotation Xrotation Yrotation
                  End Site
                  {
                    OFFSET 2.33842 -0.294052 0.168128
                  }
                }
              }
              JOINT lPinky1
              {
                OFFSET 8.27202 -0.0477905 -0.4584
                CHANNELS 3 Zrotation Xrotation Yrotation
                JOINT lPinky2
                {
                  OFFSET 1.82734 -0.647385 -0.700984
                  CHANNELS 3 Zrotation Xrotation Yrotation
                  End Site
                  {
                    OFFSET 1.69225 -0.51767 -0.607171
                  }
                }
              }
            }
          }
        }
      }
    }
  }
  JOINT rButtock
  {
    OFFSET -8.77824 4.35084 1.2192
    CHANNELS 3 Zrotation Xrotation Yrotation
    JOINT rThigh
    {
      OFFSET 0 -1.70687 -2.19456
      CHANNELS 3 Zrotation Xrotation Yrotation
      JOINT rShin
      {
        OFFSET 0 -36.8199 0.73152
        CHANNELS 3 Zrotation Xrotation Yrotation
        JOINT rFoot
        {
          OFFSET 0.73152 -45.1104 -5.12064
          CHANNELS 3 Zrotation Xrotation Yrotation
          End Site
          {
            OFFSET -1.1221 -3.69964 12.103
          }
        }
      }
    }
  }
  JOINT lButtock
  {
    OFFSET 8.77824 4.35084 1.2192
    CHANNELS 3 Zrotation Xrotation Yrotation
    JOINT lThigh
    {
      OFFSET 0 -1.70687 -2.19456
      CHANNELS 3 Zrotation Xrotation Yrotation
      JOINT lShin
      {
        OFFSET 0 -36.8199 0.73152
        CHANNELS 3 Zrotation Xrotation Yrotation
        JOINT lFoot
        {
          OFFSET -0.73152 -45.1104 -5.12064
          CHANNELS 3 Zrotation Xrotation Yrotation
          End Site
          {
            OFFSET 1.1221 -3.69964 12.103
          }
        }
      }
    }
  }
}
MOTION
Frames:	6
Frame Time:	0.03333
0.0 0.0 0.0 0.0 0.0 0.0 0.0 0.0 0.0 0.0 0.0 0.0 0.0 0.0 0.0 0.0 0.0 0.0 0.0 0.0 0.0 0.0 0.0 0.0 0.0 0.0 0.0 0.0 0.0 0.0 0.0 0.0 0.0 0.0 0.0 0.0 0.0 0.0 0.0 0.0 0.0 0.0 0.0 0.0 0.0 0.0 0.0 0.0 0.0 0.0 0.0 0.0 0.0 0.0 0.0 0.0 0.0 0.0 0.0 0.0 0.0 0.0 0.0 0.0 0.0 0.0 0.0 0.0 0.0 0.0 0.0 0.0 0.0 0.0 0.0 0.0 0.0 0.0 0.0 0.0 0.0 0.0 0.0 0.0 0.0 0.0 0.0 0.0 0.0 0.0 0.0 0.0 0.0 0.0 0.0 0.0 0.0 0.0 0.0 0.0 0.0 0.0 0.0 0.0 0.0 0.0 0.0 0.0 0.0 0.0 0.0 0.0 0.0 0.0 0.0 0.0 0.0 0.0 0.0 0.0 0.0 0.0 0.0 0.0 0.0 0.0 0.0 0.0 0.0 0.0 0.0 0.0
-0.3357 79.3813 -0.2771 177.441167 35.376709 -176.103539 -8.726109 9.544551 48.813631 -1.875956 -6.92613 -42.782218 4.180296 12.608276 47.609221 -23.182514 -12.675553 -63.887276 -0.000516 0.0 -0.0037 0.000134 0.0 0.004371 -3.856324 18.254525 4.743292 -121.022426 5.461844 133.374121 174.740793 3.616907 -130.543889 -11.58671 30.671879 1.84512 -46.661224 32.659367 20.887761 -166.877476 -51.909975 88.135573 -134.382023 10.756481 112.185502 38.018901 -48.986002 -2.144158 3.213608 -9.778442 -1.580828 -87.97335 64.131009 79.698804 -141.697277 33.874693 168.796468 8.860689 29.980628 -4.60211 167.478858 87.06445 -126.125961 -7.635921 -19.378334 -8.908328 155.278204 -2.06535 -161.527771 94.554253 -54.352959 51.5158 -165.74708 -63.949226 143.345945 10.639357 17.425979 0.167361 167.174828 -4.851071 -89.812163 -126.555439 -55.196641 -88.768028 159.23632 -31.643284 -122.664378 -34.117619 -40.572509 7.392267 163.792169 -16.557986 -144.483238 164.692908 -8.905684 -143.352381 145.115432 -0.090416 179.099848 -11.320741 15.448138 7.18927 30.024332 -41.221643 29.00812 -1.176093 -5.423799 2.128177 -179.99917 75.750356 -0.000544 179.051988 38.970446 -0.640798 -1.502222 64.965016 139.808354 109.652856 36.539274 171.754664 0.005909 -0.001653 0.002983 -10.287756 -36.360448 -153.038295 -43.194043 -39.389866 -142.605466 -22.639129 -59.796886 -107.675094
-0.466 79.3526 -0.4026 177.343958 35.279043 -176.174638 -5.142065 9.400265 -53.268434 4.819276 -3.260415 59.176067 -3.359814 30.42618 -161.809509 14.405562 41.442368 142.775481 0.000836 -0.0 -0.00204 0.001316 0.0 0.001824 -157.662524 -66.623261 175.861239 147.522329 51.649243 -117.477539 1.826425 -5.298729 52.151864 -7.53236 19.322918 0.176308 11.350883 -11.33132 -0.629526 -108.959476 13.206883 97.619801 -6.78762 10.13903 4.226837 -167.176085 -19.862014 109.716893 178.385113 -60.339599 141.168373 5.854994 -8.395588 -0.629136 -145.119812 0.582317 -179.312774 -0.946616 -52.322121 -21.669754 16.423168 57.528327 12.518602 148.48054 85.615694 -109.251321 158.6354 -32.462344 -167.361225 90.178547 -34.656426 72.350449 -151.132666 -30.504049 145.684171 19.408426 36.861168 -4.903388 -93.928005 -51.122144 -41.139856 87.592451 37.964842 -47.449821 -140.01697 -74.349797 -85.875357 146.715951 3.128872 -115.505553 158.834799 -1.106698 -142.314498 -161.858095 -67.659017 -127.97643 -0.001197 0.058707 -0.017185 -9.372528 11.281423 -1.454161 17.832752 -30.975064 17.059065 -7.289342 12.727569 -3.228252 0.0009 0.000338 0.001566 -0.689677 -39.538895 -177.910378 -9.861668 -65.673867 -70.391808 165.88699 27.654421 144.482619 179.997516 75.749304 0.001066 167.843351 40.37263 3.811887 -15.819091 55.083986 -118.322287 -86.224376 56.067765 -179.519465
-0.5723 79.3056 -0.508 177.373272 35.204704 -176.163365 -9.359386 8.696788 70.714207 -3.366772 -5.890723 -64.547685 8.458638 22.033501 107.870849 -31.219102 19.611792 -117.145695 0.000903 0.0 0.00202 0.000903 0.0 0.00202 -159.221109 -48.607507 170.541291 -76.659108 -48.264756 -86.592849 -175.675489 -35.080944 -127.380928 -7.741056 19.793751 0.221563 -1.315595 1.293745 0.217592 -146.751005 -55.723269 119.640654 -118.720614 27.304274 100.346605 1.052995 10.502871 -5.471176 -128.344161 48.038519 117.764064 -176.338087 -41.811463 142.604683 -144.870226 10.9013 177.411259 -157.704867 56.374481 173.719348 -148.251721 22.435558 -144.481497 14.87197 38.152688 5.601516 12.22002 39.882291 -13.952971 -72.565432 -8.385787 -69.898865 -167.193986 -0.762089 -88.354012 177.841896 3.203715 -142.999923 -58.745827 -44.401738 -17.376554 7.41042 -66.144944 43.446939 43.836822 38.870035 -34.224818 163.757323 -10.192194 -111.979835 161.59708 -9.554707 -143.659518 172.900418 -32.893925 -143.547508 1.014646 -17.501117 5.709827 149.499909 35.766728 -165.981123 3.88278 -9.219706 3.629228 97.270107 -51.116692 96.755508 -0.000248 0.00029 8.2e-05 -0.442061 -37.729277 -0.529703 -18.08064 57.302369 -36.311527 -57.449818 -40.521599 25.888139 179.998209 75.749352 0.001117 168.639234 39.869222 -46.726527 -40.184988 27.538307 80.317997 -119.587112 -10.463562 2.099817
-0.6419 79.2189 -0.6188 177.533088 35.111518 -176.036871 -4.780752 8.659973 -69.620158 4.787657 -1.85427 75.681894 -1.268393 30.551456 -173.553149 6.37038 43.115929 156.911194 -0.002427 0.0 -0.001859 -0.002427 0.0 -0.001859 -7.243732 29.010571 8.569729 -102.763341 22.457731 116.159205 10.005527 20.904102 -90.938885 172.406157 -15.482713 143.719503 164.904102 -30.257013 85.163224 136.44517 -69.303027 105.255155 4.461918 -7.573535 -2.313295 18.012111 -7.933004 -1.464052 -171.270126 -39.480068 145.247359 -81.389204 64.04407 73.332936 0.003783 0.858697 0.268595 8.232601 20.669825 2.939205 -146.288153 15.683261 -142.803537 -142.847225 -1.166585 -138.168992 155.501506 -72.730755 -179.241061 81.470478 -27.75569 105.001894 -36.438798 25.062632 105.112678 173.100043 16.921612 -141.365045 175.829638 -13.464026 -89.759431 19.426561 -42.385159 -0.757372 157.966082 -29.374332 -122.56383 170.97595 -36.104477 -117.424621 -17.167633 -50.034508 2.043792 169.695312 -23.95864 -144.244118 145.109006 -0.91415 178.840691 145.699226 -49.204625 168.112153 40.57213 -46.523504 39.402834 134.197101 -18.69615 132.706415 -179.994012 75.749898 -0.005936 179.84949 35.318664 -179.496151 4.855172 -71.084383 3.248144 74.497628 -3.495549 171.996448 -179.999416 75.750839 -0.000232 167.750387 37.840968 -162.551391 -2.390847 -54.367491 84.064716 85.935577 -66.191621 167.170742
-0.7014 79.1516 -0.7267 177.67013 35.021942 -175.975401 -4.935371 6.523038 -122.200879 2.425645 1.749683 128.244308 -11.834732 16.68658 -53.943816 30.340568 -8.540245 42.4029 0.003688 -0.0 -0.002558 -0.001839 -0.0 0.00212 -0.116605 -73.934324 -19.080198 -105.587297 -41.899997 -153.268298 3.944518 18.72098 -90.400825 170.551716 -20.960794 143.046712 -10.005824 9.484583 2.343464 58.824372 -67.587216 -4.034406 -171.005309 -49.628195 120.886373 -170.86983 -38.125937 116.088798 -170.353768 -36.929898 145.337273 0.915516 6.228707 1.280818 0.005413 1.038463 0.323944 7.42636 26.129058 3.946587 -130.244994 -21.742563 -127.847478 -5.39362 -17.82505 -8.77776 154.071981 4.919977 -159.942214 -139.048137 -17.551279 161.859872 -167.756419 12.522679 -88.824985 177.69804 2.871588 -142.943266 13.678752 12.696341 -3.577738 -6.619072 -5.477699 -3.638933 59.514777 42.562139 -48.191511 13.133847 26.077235 -5.087932 -7.91847 -24.855986 3.015679 6.331699 24.043654 -5.297699 145.019864 7.476581 -178.513111 138.249976 -61.863272 159.697061 46.319099 -48.4848 45.084054 161.968039 62.222321 148.83315 -0.037224 -0.000155 -0.027601 0.160865 -40.79532 -179.920724 -1.106926 -71.164013 -15.827931 -177.976713 9.577556 -165.219013 0.003918 -0.000163 0.004399 -10.958812 -35.269177 -72.166725 -45.144591 16.470374 57.588175 -125.526179 -38.570471 -16.844146
